<svg xmlns="http://www.w3.org/2000/svg" viewBox="0 0 612 792" width="612" height="792"><path fill="#FFF" d="M110.3 347.1v-184h412v184h-412zm222.3-141.4c22.9 0 45.8.1 68.6 0 10.1 0 16-5.4 15.3-13.4-.6-6.5-6.6-10.6-15.9-10.6H272.5c-3.7 0-7.4-.2-11.1.1-7.3.7-12.6 5.8-12.5 11.9 0 6.4 5.6 11.5 13.1 12 1.7.1 3.5.1 5.2.1 21.9-.1 43.7-.1 65.4-.1zm0 123.2h68.6c9.6 0 15.2-4.3 15.4-11.5.1-7.5-5.4-12.3-15.2-12.3-45.7-.1-91.5-.1-137.2 0-9.6 0-15.5 5.1-15.2 12.5.2 6.9 6.3 11.3 15.7 11.4 22.6-.1 45.2-.1 67.9-.1zm-.4-81.2h67.3c11.2 0 17-4.1 17.1-11.8.1-7.9-5.6-12-16.8-12H263.2c-6.7 0-11.3 2.7-13.5 8.1-2 4.8-.7 9.6 3.8 12.4 3.3 2 8 3.1 12 3.2 22.2.3 44.5.1 66.7.1zm.5 16.4c-23.1 0-46.2-.1-69.3 0-8.7 0-14.5 5-14.4 11.9.1 6.9 5.7 11.8 14.5 11.8 46.4.1 92.8.1 139.2-.1 3.7 0 8-2 10.8-4.2 4-3.2 4.2-7.9 2.1-12.2-2.4-4.9-6.9-7.1-13-7.1-23.3-.1-46.6-.1-69.9-.1zM216 193.7c0 6.7 6 11.9 13.5 12 7.4 0 13.5-5.4 13.6-12.1 0-6.5-6.2-12-13.7-12-7.4.1-13.4 5.5-13.4 12.1zm0 42c0 6.9 5.7 12 13.5 12 7.6 0 13.6-5.4 13.5-12.1-.1-6.5-5.9-11.5-13.3-11.6-7.8-.2-13.6 4.8-13.7 11.7zm13.8 93.2c7.6-.1 13.6-5.5 13.3-12.2-.2-6.4-6.3-11.5-13.6-11.6-7.6 0-13.6 5.2-13.5 12 .1 6.9 5.9 11.9 13.8 11.8zm-.4-41.1c7.6.1 13.8-5.2 13.8-11.9 0-6.4-5.8-11.6-13.2-11.8-7.8-.2-13.8 4.8-13.9 11.6-.2 6.9 5.4 12 13.3 12.1z"/><path d="M332.6 205.7h-65.4c-1.7 0-3.5.1-5.2-.1-7.5-.5-13.1-5.6-13.1-12 0-6 5.3-11.2 12.5-11.9 3.7-.3 7.4-.1 11.1-.1h128.1c9.3 0 15.2 4.1 15.9 10.6.8 8-5.1 13.4-15.3 13.4-22.8.2-45.7.1-68.6.1zm0 123.2h-68c-9.4 0-15.4-4.5-15.7-11.4-.3-7.4 5.6-12.5 15.2-12.5 45.7-.1 91.5-.1 137.2 0 9.8 0 15.3 4.8 15.2 12.3-.1 7.2-5.8 11.5-15.4 11.5-22.8.2-45.6.1-68.5.1zm-.4-81.2c-22.2 0-44.4.2-66.7-.1-4.1-.1-8.8-1.2-12-3.2-4.5-2.8-5.8-7.6-3.8-12.4 2.3-5.5 6.9-8.1 13.5-8.1h136.6c11.2 0 16.8 4.1 16.8 12-.1 7.7-5.9 11.8-17.1 11.8-22.4.1-44.9 0-67.3 0zm.5 16.4h69.9c6.1 0 10.6 2.2 13 7.1 2.1 4.4 1.9 9.1-2.1 12.2-2.8 2.2-7.1 4.2-10.8 4.2-46.4.3-92.8.2-139.2.1-8.8 0-14.4-4.9-14.5-11.8-.1-6.8 5.8-11.8 14.4-11.9 23.1 0 46.2.1 69.3.1zM216 193.7c0-6.7 6-12 13.4-12.1 7.5 0 13.7 5.5 13.7 12 0 6.7-6.1 12.1-13.6 12.1s-13.4-5.3-13.5-12zm0 42c0-6.9 5.9-11.9 13.7-11.8 7.5.1 13.2 5.1 13.3 11.6.1 6.7-5.9 12.1-13.5 12.1-7.7 0-13.5-5.1-13.5-11.9zm13.8 93.2c-7.9.1-13.7-4.9-13.8-11.7-.1-6.8 5.9-12.1 13.5-12 7.3 0 13.3 5.2 13.6 11.6.3 6.6-5.7 12-13.3 12.1zm-.4-41.1c-7.8-.1-13.5-5.2-13.3-12.1.1-6.8 6.1-11.8 13.9-11.6 7.4.2 13.2 5.4 13.2 11.8-.1 6.7-6.2 12-13.8 11.9z"/></svg>