<?xml version="1.0" encoding="iso-8859-1"?>
<!-- Generator: Adobe Illustrator 17.1.0, SVG Export Plug-In . SVG Version: 6.00 Build 0)  -->
<!DOCTYPE svg PUBLIC "-//W3C//DTD SVG 1.1//EN" "http://www.w3.org/Graphics/SVG/1.1/DTD/svg11.dtd">
<svg version="1.1" id="Layer_1" xmlns="http://www.w3.org/2000/svg" xmlns:xlink="http://www.w3.org/1999/xlink" x="0px" y="0px"
	 viewBox="0 0 612 792" style="enable-background:new 0 0 612 792;" xml:space="preserve">
<g>
	<g>
		<path style="fill:#FEFEFE;" d="M199.03,512.97c0-77.677,0-155.323,0-232.94c72.01,0,143.99,0,215.94,0
			c0,77.677,0,155.323,0,232.94C342.96,512.97,270.98,512.97,199.03,512.97z M280.427,503.502c-0.808,0.184-1.617,0.368-2.425,0.551
			c-0.315-0.078-0.631-0.089-0.951-0.035c-1.067-0.843-2.135-1.685-2.806-2.215c-2.159,0.961-4.07,1.811-7.064,3.143
			c1.913,0.735,3.256,1.586,4.66,1.702c1.579,0.131,3.213-0.401,4.823-0.645c0.466,0.577,0.932,1.155,1.395,1.727
			c0.795-0.07,1.589-0.14,2.384-0.21c0.27-0.084,0.493-0.237,0.671-0.457c0.622-0.024,1.244-0.048,1.866-0.072
			c2.773,0,5.546,0,9.233,0c-1.995-2.355-3.237-3.82-4.415-5.211c-1.644,0.76-3.231,1.493-4.817,2.227
			c-0.622-0.024-1.244-0.048-1.866-0.072C280.934,503.714,280.706,503.568,280.427,503.502z M301.906,506.958
			c0.7,0.004,1.4,0.008,2.1,0.011c0.605-0.411,1.21-0.821,1.815-1.232c-0.605-0.569-1.21-1.138-1.815-1.707
			c-0.7,0.004-1.4,0.008-2.101,0.012C301.905,505.014,301.905,505.986,301.906,506.958z M255.064,507.067
			c0.551-1.313,1.101-2.625,1.652-3.938c-0.076-0.235-0.152-0.47-0.229-0.705c-0.16,0.194-0.32,0.388-0.48,0.583
			c-0.346,1.322-0.692,2.645-1.038,3.968c-0.108,0.248-0.217,0.495-0.325,0.743C254.784,507.5,254.924,507.284,255.064,507.067z
			 M248.456,374.809c-0.536-0.098-1.261-0.471-1.579-0.252c-4.22,2.898-4.457,8.067-0.215,11.259
			c8.772,6.601,17.652,13.066,26.653,19.35c2.654,1.853,3.235,3.559,2.183,6.589c-3.326,9.581-6.315,19.279-9.564,28.888
			c-1.306,3.862-2.138,7.537,1.843,10.297c3.807,2.64,6.874,0.504,9.939-1.752c9.227-6.794,18.501-13.525,27.926-20.405
			c9.284,6.805,18.396,13.474,27.498,20.159c3.312,2.432,6.694,4.909,10.777,1.71c3.801-2.978,2.501-6.706,1.248-10.465
			c-3.568-10.708-7.011-21.458-10.588-32.453c9.785-7.105,19.429-14.161,29.138-21.125c2.99-2.144,4.764-4.64,3.501-8.444
			c-1.281-3.858-4.275-4.573-7.923-4.528c-10.325,0.128-20.656-0.066-30.976,0.187c-3.544,0.087-5.24-0.855-6.287-4.451
			c-2.924-10.049-6.403-19.935-9.501-29.936c-1.102-3.556-3.026-6.06-6.863-6.126c-3.92-0.068-5.771,2.555-6.873,6.066
			c-3.235,10.306-6.684,20.545-9.872,30.866c-0.815,2.64-1.991,3.639-4.88,3.577c-10.322-0.22-20.651-0.16-30.977-0.101
			c-1.486,0.008-2.969,0.591-4.453,0.908L248.456,374.809z M367.221,504.354c-1.444-0.358-2.955-0.265-3.57-0.962
			c-3.573-4.052-8.038-0.949-11.981-1.731c-0.216,1.73-1.082,3.74-0.487,5.122c0.788,1.832,6.29,0.394,7.426-1.788
			C361.428,509.293,363.461,509.207,367.221,504.354z M338.103,503.851c-3.208-0.857-6.64-1.773-10.745-2.869
			c-0.11,2.432-0.178,3.953-0.256,5.664C331.063,505.413,335.694,510.737,338.103,503.851z M315.2,505.176
			c-0.525-0.959-1.05-1.918-1.575-2.878c-1.844,1.135-3.688,2.27-5.532,3.405c0.502,0.734,1.269,2.168,1.466,2.094
			C311.494,507.067,313.333,506.086,315.2,505.176z M378.202,501.458c-0.746,0.104-1.492,0.208-2.239,0.311
			c0.202,2.021,0.405,4.043,0.607,6.064c0.694-0.058,1.388-0.117,2.082-0.175C378.502,505.591,378.352,503.525,378.202,501.458z
			 M233.919,507.283c1.653-0.238,3.02-0.436,4.719-0.681C235.658,503.239,235.449,503.269,233.919,507.283z M324.544,505.929
			c-2.237-1.589-2.987-2.527-3.642-2.465c-0.568,0.054-1.03,1.24-1.538,1.925c0.75,0.484,1.451,1.212,2.266,1.378
			C322.302,506.905,323.109,506.377,324.544,505.929z M346.847,505.905c0.621-0.111,1.242-0.221,1.862-0.332
			c-0.358-1.149-0.634-2.337-1.149-3.41c-0.097-0.202-1.151,0.055-2.158,0.129C345.973,503.719,346.41,504.812,346.847,505.905z
			 M293.097,507.728c4.779-0.418,4.916-0.645,2.982-3.979C295.197,504.926,294.314,506.103,293.097,507.728z M244.589,503.569
			c-0.494,0.028-0.988,0.055-1.482,0.083c0.12,1.285,0.239,2.569,0.359,3.854c0.374-0.033,0.749-0.066,1.123-0.099
			C244.589,506.128,244.589,504.849,244.589,503.569z M342.642,505.029c0.254-0.346,0.509-0.692,0.763-1.038
			c-1.15-0.877-2.299-1.753-3.449-2.63c-0.168,0.208-0.337,0.416-0.505,0.624C340.514,503.001,341.578,504.015,342.642,505.029z
			 M371.647,504.971c0.245-0.32,0.491-0.641,0.736-0.961c-1.126-0.818-2.251-1.635-3.377-2.453
			c-0.166,0.211-0.332,0.422-0.498,0.633C369.555,503.117,370.601,504.044,371.647,504.971z M247.911,503.93
			c-0.229-0.019-0.459-0.038-0.688-0.057c-0.13,1.173-0.26,2.346-0.389,3.519c0.283,0.025,0.566,0.049,0.849,0.074
			C247.76,506.287,247.835,505.109,247.911,503.93z M241.394,501.21c-0.283,0.095-0.566,0.19-0.848,0.285
			c0.235,0.615,0.469,1.23,0.704,1.845c0.238-0.08,0.475-0.159,0.713-0.239C241.772,502.471,241.583,501.841,241.394,501.21z
			 M262.291,507.245c0.139,0,0.278,0,0.417,0c0-0.496,0-0.993,0-1.489c-0.139,0-0.278,0-0.417,0
			C262.291,506.252,262.291,506.748,262.291,507.245z"/>
		<path style="fill:#0E0E0E;" d="M248.61,374.627c1.484-0.317,2.967-0.899,4.453-0.908c10.326-0.059,20.655-0.119,30.977,0.101
			c2.889,0.062,4.065-0.937,4.88-3.577c3.187-10.32,6.637-20.56,9.872-30.866c1.102-3.511,2.953-6.135,6.873-6.066
			c3.837,0.067,5.761,2.57,6.863,6.126c3.098,10.001,6.577,19.887,9.501,29.936c1.046,3.596,2.742,4.538,6.287,4.451
			c10.321-0.253,20.651-0.06,30.976-0.187c3.648-0.045,6.642,0.67,7.923,4.528c1.263,3.804-0.511,6.3-3.501,8.444
			c-9.709,6.964-19.353,14.02-29.138,21.125c3.577,10.995,7.019,21.745,10.588,32.453c1.253,3.759,2.553,7.487-1.248,10.465
			c-4.083,3.199-7.465,0.723-10.777-1.71c-9.101-6.685-18.214-13.355-27.498-20.159c-9.425,6.88-18.699,13.611-27.926,20.405
			c-3.065,2.257-6.132,4.392-9.939,1.752c-3.98-2.76-3.149-6.435-1.843-10.297c3.249-9.609,6.238-19.307,9.564-28.888
			c1.052-3.03,0.471-4.736-2.183-6.589c-9.001-6.285-17.881-12.749-26.653-19.35c-4.242-3.192-4.005-8.361,0.215-11.259
			c0.318-0.219,1.043,0.154,1.581,0.253c0.567,0.339,1.131,0.969,1.698,0.972c12.262,0.057,24.524,0.043,36.785,0.043
			c0.001-0.399,0.002-0.799,0.002-1.198C274.166,374.627,261.388,374.627,248.61,374.627z M272.473,443.848
			c2.458-1.674,3.813-2.542,5.11-3.489c7.39-5.399,14.869-10.684,22.107-16.28c4.288-3.315,8.08-3.101,12.159,0.164
			c3.505,2.805,7.154,5.434,10.785,8.079c4.992,3.635,10.027,7.211,16.213,11.651c-3.874-11.851-7.182-22.27-10.709-32.613
			c-1.511-4.431-0.581-7.645,3.322-10.328c6.031-4.146,11.897-8.533,17.816-12.842c2.958-2.153,5.877-4.36,9.956-7.391
			c-12.439,0-23.248-0.147-34.05,0.066c-4.954,0.098-7.714-1.908-9.139-6.59c-2.904-9.542-6.037-19.015-9.116-28.503
			c-0.302-0.93-0.882-1.77-1.607-3.187c-3.612,11.127-7.123,21.518-10.325,32.004c-1.396,4.573-4.064,6.371-8.785,6.271
			c-9.659-0.205-19.325-0.075-28.988-0.053c-1.323,0.003-2.645,0.18-4.939,0.346c8.376,6.047,15.763,11.44,23.215,16.745
			c9.833,6.999,9.804,6.984,5.977,18.316C278.515,424.975,275.738,433.798,272.473,443.848z M361.523,375.808
			c0.142-0.164,0.284-0.327,0.426-0.49c-12.25,0-24.499,0-36.749,0c0,0.164-0.001,0.327-0.001,0.49
			C337.308,375.808,349.416,375.808,361.523,375.808z"/>
		<path style="fill:#FDFDFD;" d="M367.221,504.354c-3.76,4.853-5.793,4.939-8.613,0.642c-1.136,2.182-6.638,3.619-7.426,1.788
			c-0.594-1.382,0.272-3.392,0.487-5.122c3.943,0.782,8.409-2.321,11.981,1.731C364.266,504.09,365.777,503.996,367.221,504.354z
			 M354.278,504.387c-0.14-0.049-0.282-0.133-0.42-0.129c-0.047,0.001-0.087,0.226-0.13,0.348c0.14,0.049,0.282,0.133,0.42,0.129
			C354.195,504.734,354.235,504.51,354.278,504.387z"/>
		<path style="fill:#FDFDFD;" d="M338.103,503.851c-2.409,6.887-7.04,1.562-11.001,2.795c0.077-1.711,0.146-3.232,0.256-5.664
			C331.463,502.077,334.895,502.994,338.103,503.851z"/>
		<path style="fill:#FDFDFD;" d="M282.98,504.008c1.587-0.734,3.174-1.467,4.817-2.227c1.178,1.391,2.42,2.856,4.415,5.211
			c-3.687,0-6.46,0-9.232,0C282.982,505.998,282.981,505.003,282.98,504.008z"/>
		<path style="fill:#FDFDFD;" d="M315.2,505.176c-1.867,0.91-3.706,1.891-5.641,2.621c-0.197,0.074-0.964-1.36-1.466-2.094
			c1.844-1.135,3.688-2.27,5.532-3.405C314.15,503.257,314.675,504.217,315.2,505.176z"/>
		<path style="fill:#FDFDFD;" d="M276.664,506.004c-1.61,0.244-3.244,0.776-4.823,0.645c-1.404-0.116-2.747-0.967-4.66-1.702
			c2.994-1.332,4.905-2.182,7.064-3.143c0.671,0.53,1.739,1.372,2.806,2.215C276.923,504.68,276.794,505.342,276.664,506.004z"/>
		<path style="fill:#FDFDFD;" d="M378.202,501.458c0.15,2.067,0.3,4.133,0.45,6.2c-0.694,0.059-1.388,0.117-2.082,0.175
			c-0.202-2.021-0.405-4.043-0.607-6.064C376.709,501.666,377.456,501.562,378.202,501.458z"/>
		<path style="fill:#FDFDFD;" d="M233.919,507.283c1.53-4.014,1.739-4.044,4.719-0.681
			C236.939,506.847,235.572,507.044,233.919,507.283z"/>
		<path style="fill:#FDFDFD;" d="M324.544,505.929c-1.434,0.448-2.242,0.975-2.914,0.838c-0.815-0.166-1.516-0.893-2.266-1.378
			c0.509-0.686,0.97-1.872,1.538-1.925C321.557,503.402,322.307,504.34,324.544,505.929z"/>
		<path style="fill:#FDFDFD;" d="M346.847,505.905c-0.437-1.093-0.874-2.185-1.444-3.613c1.006-0.074,2.06-0.332,2.158-0.129
			c0.516,1.073,0.791,2.262,1.149,3.41C348.088,505.683,347.468,505.794,346.847,505.905z"/>
		<path style="fill:#FDFDFD;" d="M293.097,507.728c1.218-1.625,2.1-2.802,2.985-3.977
			C298.013,507.083,297.876,507.309,293.097,507.728z"/>
		<path style="fill:#FDFDFD;" d="M244.589,503.569c0,1.279,0,2.559,0,3.838c-0.374,0.033-0.749,0.066-1.123,0.099
			c-0.12-1.285-0.239-2.569-0.359-3.854C243.601,503.625,244.095,503.597,244.589,503.569z"/>
		<path style="fill:#FDFDFD;" d="M342.642,505.029c-1.064-1.014-2.127-2.029-3.191-3.043c0.168-0.208,0.337-0.416,0.505-0.624
			c1.15,0.877,2.299,1.753,3.449,2.63C343.15,504.338,342.896,504.684,342.642,505.029z"/>
		<path style="fill:#FDFDFD;" d="M371.647,504.971c-1.046-0.927-2.093-1.854-3.139-2.781c0.166-0.211,0.332-0.422,0.498-0.633
			c1.126,0.818,2.251,1.635,3.377,2.453C372.138,504.33,371.893,504.65,371.647,504.971z"/>
		<path style="fill:#AFAFAF;" d="M256.716,503.129c-0.551,1.313-1.101,2.625-1.652,3.938c0,0-0.095-0.093-0.095-0.093
			c0.346-1.322,0.692-2.645,1.038-3.967C256.242,503.055,256.478,503.096,256.716,503.129z"/>
		<path style="fill:#D8D8D8;" d="M282.98,504.008c0.001,0.995,0.001,1.99,0.001,2.985c-0.623,0.024-1.245,0.047-1.867,0.071
			c0-1.043,0-2.085,0-3.128C281.736,503.96,282.358,503.984,282.98,504.008z"/>
		<path style="fill:#FDFDFD;" d="M247.911,503.93c-0.076,1.178-0.152,2.357-0.228,3.535c-0.283-0.025-0.566-0.049-0.849-0.074
			c0.13-1.173,0.26-2.346,0.389-3.519C247.453,503.892,247.682,503.911,247.911,503.93z"/>
		<path style="fill:#FCFCFC;" d="M301.905,504.042c0.7-0.004,1.4-0.008,2.101-0.012c0,0.979,0,1.959,0,2.939
			c-0.7-0.004-1.4-0.008-2.1-0.011C301.906,505.986,301.905,505.014,301.905,504.042z"/>
		<path style="fill:#FDFDFD;" d="M304.006,506.969c0-0.98,0-1.96,0-2.939c0.605,0.569,1.21,1.138,1.815,1.707
			C305.216,506.148,304.611,506.559,304.006,506.969z"/>
		<path style="fill:#FDFDFD;" d="M241.394,501.21c0.189,0.631,0.379,1.262,0.568,1.892c-0.238,0.08-0.475,0.159-0.713,0.239
			c-0.235-0.615-0.469-1.23-0.704-1.845C240.828,501.4,241.111,501.305,241.394,501.21z"/>
		<path style="fill:#656565;" d="M276.664,506.004c0.129-0.662,0.258-1.324,0.387-1.985c0.319-0.054,0.636-0.043,0.951,0.035
			c0,0-0.066-0.078-0.066-0.078c0.071,0.991,0.141,1.981,0.212,2.971c-0.294,0.234-0.322,0.497-0.086,0.789
			C277.597,507.159,277.13,506.581,276.664,506.004z"/>
		<path style="fill:#969696;" d="M281.114,503.936c0,1.042,0,2.085,0,3.128c-0.177,0.22-0.401,0.372-0.671,0.457
			c-0.2-0.254-0.413-0.496-0.642-0.725c0.005-0.868,0.009-1.736,0.014-2.604c0.218-0.22,0.423-0.452,0.614-0.696
			C280.706,503.568,280.934,503.714,281.114,503.936z"/>
		<path style="fill:#646464;" d="M301.905,504.042c0,0.972,0,1.944,0.001,2.916C301.905,505.986,301.905,505.014,301.905,504.042z"
			/>
		<path style="fill:#FDFDFD;" d="M262.291,507.245c0-0.496,0-0.993,0-1.489c0.139,0,0.278,0,0.417,0c0,0.496,0,0.993,0,1.489
			C262.569,507.245,262.43,507.245,262.291,507.245z"/>
		<path style="fill:#969696;" d="M278.003,504.053c0.808-0.184,1.617-0.368,2.426-0.555c-0.19,0.241-0.395,0.473-0.613,0.692
			c-0.626-0.072-1.253-0.144-1.88-0.216L278.003,504.053z"/>
		<path style="fill:#969696;" d="M280.443,507.52c-0.795,0.07-1.589,0.14-2.382,0.213c-0.235-0.289-0.206-0.552,0.087-0.786
			c0.551-0.05,1.102-0.101,1.654-0.152C280.03,507.024,280.244,507.266,280.443,507.52z"/>
		<path style="fill:#CACACA;" d="M256.716,503.129c-0.238-0.033-0.474-0.074-0.709-0.123c0.16-0.194,0.32-0.388,0.48-0.583
			C256.563,502.659,256.64,502.894,256.716,503.129z"/>
		<path style="fill:#AFAFAF;" d="M255.064,507.067c-0.14,0.217-0.28,0.434-0.419,0.65c0.108-0.248,0.217-0.495,0.324-0.743
			C254.969,506.974,255.064,507.067,255.064,507.067z"/>
		<path style="fill:#FAFAFA;" d="M272.473,443.848c3.265-10.05,6.042-18.873,9.001-27.635c3.827-11.331,3.856-11.317-5.977-18.316
			c-7.452-5.304-14.839-10.698-23.215-16.745c2.294-0.167,3.616-0.343,4.939-0.346c9.663-0.022,19.329-0.152,28.988,0.053
			c4.72,0.1,7.388-1.698,8.785-6.271c3.202-10.486,6.713-20.877,10.325-32.004c0.725,1.416,1.305,2.256,1.607,3.187
			c3.079,9.488,6.212,18.961,9.116,28.503c1.425,4.682,4.185,6.688,9.139,6.59c10.802-0.213,21.611-0.066,34.05-0.066
			c-4.078,3.031-6.998,5.237-9.956,7.391c-5.919,4.309-11.785,8.696-17.816,12.842c-3.903,2.683-4.833,5.896-3.322,10.328
			c3.527,10.344,6.834,20.763,10.709,32.613c-6.186-4.441-11.221-8.016-16.213-11.651c-3.631-2.644-7.28-5.273-10.785-8.079
			c-4.079-3.265-7.871-3.479-12.159-0.164c-7.238,5.596-14.717,10.881-22.107,16.28
			C276.286,441.306,274.931,442.174,272.473,443.848z"/>
		<path style="fill:#181818;" d="M248.61,374.627c12.778,0,25.556,0,38.334,0c-0.001,0.399-0.002,0.799-0.002,1.198
			c-12.262,0-24.524,0.014-36.785-0.043c-0.567-0.003-1.131-0.633-1.698-0.972C248.456,374.809,248.61,374.627,248.61,374.627z"/>
		<path style="fill:#181818;" d="M361.523,375.808c-12.108,0-24.215,0-36.323,0c0-0.164,0.001-0.327,0.001-0.49
			c12.25,0,24.499,0,36.749,0C361.807,375.481,361.665,375.645,361.523,375.808z"/>
		<path style="fill:#FEFEFE;" d="M354.278,504.387c-0.043,0.122-0.083,0.346-0.13,0.348c-0.139,0.005-0.28-0.079-0.42-0.129
			c0.043-0.122,0.083-0.347,0.13-0.348C353.997,504.254,354.138,504.338,354.278,504.387z"/>
		<path style="fill:#FBFBFB;" d="M279.802,506.795c-0.551,0.051-1.103,0.101-1.654,0.152c-0.07-0.99-0.141-1.981-0.211-2.971
			c0.626,0.072,1.253,0.143,1.879,0.215C279.811,505.059,279.806,505.927,279.802,506.795z"/>
	</g>
</g>
</svg>
