<svg xmlns="http://www.w3.org/2000/svg">
<symbol id="icon" viewBox="0 0 612 792">
<path fill="#fefefe" d="M199.03 512.97V280.03h215.94v232.94H199.03zm81.397-9.468l-2.425.551a2.31 2.31 0 0 0-.951-.035l-2.806-2.215-7.064 3.143c1.913.735 3.256 1.586 4.66 1.702 1.579.131 3.213-.401 4.823-.645l1.395 1.727 2.384-.21c.27-.084.493-.237.671-.457l1.866-.072h9.233l-4.415-5.211-4.817 2.227-1.866-.072a1.236 1.236 0 0 0-.688-.433zm21.479 3.456l2.1.011 1.815-1.232-1.815-1.707-2.101.012.001 2.916zm-46.842.109l1.652-3.938-.229-.705-.48.583-1.038 3.968-.325.743.42-.651zm-6.608-132.258c-.536-.098-1.261-.471-1.579-.252-4.22 2.898-4.457 8.067-.215 11.259a924.74 924.74 0 0 0 26.653 19.35c2.654 1.853 3.235 3.559 2.183 6.589-3.326 9.581-6.315 19.279-9.564 28.888-1.306 3.862-2.138 7.537 1.843 10.297 3.807 2.64 6.874.504 9.939-1.752 9.227-6.794 18.501-13.525 27.926-20.405 9.284 6.805 18.396 13.474 27.498 20.159 3.312 2.432 6.694 4.909 10.777 1.71 3.801-2.978 2.501-6.706 1.248-10.465-3.568-10.708-7.011-21.458-10.588-32.453 9.785-7.105 19.429-14.161 29.138-21.125 2.99-2.144 4.764-4.64 3.501-8.444-1.281-3.858-4.275-4.573-7.923-4.528-10.325.128-20.656-.066-30.976.187-3.544.087-5.24-.855-6.287-4.451-2.924-10.049-6.403-19.935-9.501-29.936-1.102-3.556-3.026-6.06-6.863-6.126-3.92-.068-5.771 2.555-6.873 6.066-3.235 10.306-6.684 20.545-9.872 30.866-.815 2.64-1.991 3.639-4.88 3.577-10.322-.22-20.651-.16-30.977-.101-1.486.008-2.969.591-4.453.908l-.155.182zm118.765 129.545c-1.444-.358-2.955-.265-3.57-.962-3.573-4.052-8.038-.949-11.981-1.731-.216 1.73-1.082 3.74-.487 5.122.788 1.832 6.29.394 7.426-1.788 2.819 4.298 4.852 4.212 8.612-.641zm-29.118-.503l-10.745-2.869-.256 5.664c3.961-1.233 8.592 4.091 11.001-2.795zm-22.903 1.325l-1.575-2.878-5.532 3.405c.502.734 1.269 2.168 1.466 2.094 1.935-.73 3.774-1.711 5.641-2.621zm63.002-3.718l-2.239.311.607 6.064 2.082-.175-.45-6.2zm-144.283 5.825l4.719-.681c-2.98-3.363-3.189-3.333-4.719.681zm90.625-1.354c-2.237-1.589-2.987-2.527-3.642-2.465-.568.054-1.03 1.24-1.538 1.925.75.484 1.451 1.212 2.266 1.378.672.138 1.479-.39 2.914-.838zm22.303-.024l1.862-.332c-.358-1.149-.634-2.337-1.149-3.41-.097-.202-1.151.055-2.158.129l1.445 3.613zm-53.75 1.823c4.779-.418 4.916-.645 2.982-3.979l-2.982 3.979zm-48.508-4.159l-1.482.083.359 3.854 1.123-.099v-3.838zm98.053 1.46l.763-1.038-3.449-2.63-.505.624c1.063 1.016 2.127 2.03 3.191 3.044zm29.005-.058l.736-.961-3.377-2.453-.498.633 3.139 2.781zm-123.736-1.041l-.688-.057-.389 3.519.849.074.228-3.536zm-6.517-2.72l-.848.285.704 1.845.713-.239c-.191-.63-.38-1.26-.569-1.891zm20.897 6.035h.417v-1.489h-.417v1.489z"/><path fill="#0e0e0e" d="M248.61 374.627c1.484-.317 2.967-.899 4.453-.908 10.326-.059 20.655-.119 30.977.101 2.889.062 4.065-.937 4.88-3.577 3.187-10.32 6.637-20.56 9.872-30.866 1.102-3.511 2.953-6.135 6.873-6.066 3.837.067 5.761 2.57 6.863 6.126 3.098 10.001 6.577 19.887 9.501 29.936 1.046 3.596 2.742 4.538 6.287 4.451 10.321-.253 20.651-.06 30.976-.187 3.648-.045 6.642.67 7.923 4.528 1.263 3.804-.511 6.3-3.501 8.444-9.709 6.964-19.353 14.02-29.138 21.125 3.577 10.995 7.019 21.745 10.588 32.453 1.253 3.759 2.553 7.487-1.248 10.465-4.083 3.199-7.465.723-10.777-1.71-9.101-6.685-18.214-13.355-27.498-20.159-9.425 6.88-18.699 13.611-27.926 20.405-3.065 2.257-6.132 4.392-9.939 1.752-3.98-2.76-3.149-6.435-1.843-10.297 3.249-9.609 6.238-19.307 9.564-28.888 1.052-3.03.471-4.736-2.183-6.589a926.657 926.657 0 0 1-26.653-19.35c-4.242-3.192-4.005-8.361.215-11.259.318-.219 1.043.154 1.581.253.567.339 1.131.969 1.698.972 12.262.057 24.524.043 36.785.043l.002-1.198H248.61zm23.863 69.221c2.458-1.674 3.813-2.542 5.11-3.489 7.39-5.399 14.869-10.684 22.107-16.28 4.288-3.315 8.08-3.101 12.159.164 3.505 2.805 7.154 5.434 10.785 8.079 4.992 3.635 10.027 7.211 16.213 11.651-3.874-11.851-7.182-22.27-10.709-32.613-1.511-4.431-.581-7.645 3.322-10.328 6.031-4.146 11.897-8.533 17.816-12.842 2.958-2.153 5.877-4.36 9.956-7.391-12.439 0-23.248-.147-34.05.066-4.954.098-7.714-1.908-9.139-6.59-2.904-9.542-6.037-19.015-9.116-28.503-.302-.93-.882-1.77-1.607-3.187-3.612 11.127-7.123 21.518-10.325 32.004-1.396 4.573-4.064 6.371-8.785 6.271-9.659-.205-19.325-.075-28.988-.053-1.323.003-2.645.18-4.939.346 8.376 6.047 15.763 11.44 23.215 16.745 9.833 6.999 9.804 6.984 5.977 18.316-2.96 8.761-5.737 17.584-9.002 27.634zm89.05-68.04l.426-.49H325.2l-.001.49h36.324z"/><path fill="#fdfdfd" d="M367.221 504.354c-3.76 4.853-5.793 4.939-8.613.642-1.136 2.182-6.638 3.619-7.426 1.788-.594-1.382.272-3.392.487-5.122 3.943.782 8.409-2.321 11.981 1.731.616.697 2.127.603 3.571.961zm-12.943.033c-.14-.049-.282-.133-.42-.129-.047.001-.087.226-.13.348.14.049.282.133.42.129.047-.001.087-.225.13-.348zm-16.175-.536c-2.409 6.887-7.04 1.562-11.001 2.795l.256-5.664c4.105 1.095 7.537 2.012 10.745 2.869zm-55.123.157l4.817-2.227 4.415 5.211h-9.232c.002-.994.001-1.989 0-2.984zm32.22 1.168c-1.867.91-3.706 1.891-5.641 2.621-.197.074-.964-1.36-1.466-2.094l5.532-3.405 1.575 2.878zm-38.536.828c-1.61.244-3.244.776-4.823.645-1.404-.116-2.747-.967-4.66-1.702l7.064-3.143 2.806 2.215-.387 1.985zm101.538-4.546l.45 6.2-2.082.175-.607-6.064 2.239-.311zm-144.283 5.825c1.53-4.014 1.739-4.044 4.719-.681l-4.719.681zm90.625-1.354c-1.434.448-2.242.975-2.914.838-.815-.166-1.516-.893-2.266-1.378.509-.686.97-1.872 1.538-1.925.655-.062 1.405.876 3.642 2.465zm22.303-.024l-1.444-3.613c1.006-.074 2.06-.332 2.158-.129.516 1.073.791 2.262 1.149 3.41l-1.863.332zm-53.75 1.823c1.218-1.625 2.1-2.802 2.985-3.977 1.931 3.332 1.794 3.558-2.985 3.977zm-48.508-4.159v3.838l-1.123.099-.359-3.854 1.482-.083zm98.053 1.46l-3.191-3.043.505-.624 3.449 2.63-.763 1.037zm29.005-.058l-3.139-2.781.498-.633 3.377 2.453-.736.961z"/><path fill="#afafaf" d="M256.716 503.129l-1.652 3.938-.095-.093 1.038-3.967c.235.048.471.089.709.122z"/>
<path fill="#d8d8d8" d="M282.98 504.008l.001 2.985-1.867.071v-3.128l1.866.072z"/>
<path fill="#fdfdfd" d="M247.911 503.93l-.228 3.535-.849-.074.389-3.519.688.058z"/>
<path fill="#fcfcfc" d="M301.905 504.042l2.101-.012v2.939l-2.1-.011-.001-2.916z"/>
<path fill="#fdfdfd" d="M304.006 506.969v-2.939l1.815 1.707-1.815 1.232zm-62.612-5.759l.568 1.892-.713.239-.704-1.845.849-.286z"/>
<path fill="#656565" d="M276.664 506.004l.387-1.985a2.31 2.31 0 0 1 .951.035l-.066-.078.212 2.971c-.294.234-.322.497-.086.789l-1.398-1.732z"/>
<path fill="#969696" d="M281.114 503.936v3.128a1.37 1.37 0 0 1-.671.457 8.172 8.172 0 0 0-.642-.725l.014-2.604c.218-.22.423-.452.614-.696.277.072.505.218.685.44z"/><path fill="#646464" d="M301.905 504.042l.001 2.916-.001-2.916z"/><path fill="#fdfdfd" d="M262.291 507.245v-1.489h.417v1.489h-.417z"/><path fill="#969696" d="M278.003 504.053c.808-.184 1.617-.368 2.426-.555a8.02 8.02 0 0 1-.613.692l-1.88-.216.067.079zm2.44 3.467c-.795.07-1.589.14-2.382.213-.235-.289-.206-.552.087-.786l1.654-.152c.228.229.442.471.641.725z"/><path fill="#cacaca" d="M256.716 503.129a10.607 10.607 0 0 1-.709-.123l.48-.583.229.706z"/><path fill="#afafaf" d="M255.064 507.067l-.419.65c.108-.248.217-.495.324-.743l.095.093z"/><path fill="#fafafa" d="M272.473 443.848c3.265-10.05 6.042-18.873 9.001-27.635 3.827-11.331 3.856-11.317-5.977-18.316-7.452-5.304-14.839-10.698-23.215-16.745 2.294-.167 3.616-.343 4.939-.346 9.663-.022 19.329-.152 28.988.053 4.72.1 7.388-1.698 8.785-6.271 3.202-10.486 6.713-20.877 10.325-32.004.725 1.416 1.305 2.256 1.607 3.187 3.079 9.488 6.212 18.961 9.116 28.503 1.425 4.682 4.185 6.688 9.139 6.59 10.802-.213 21.611-.066 34.05-.066-4.078 3.031-6.998 5.237-9.956 7.391-5.919 4.309-11.785 8.696-17.816 12.842-3.903 2.683-4.833 5.896-3.322 10.328 3.527 10.344 6.834 20.763 10.709 32.613-6.186-4.441-11.221-8.016-16.213-11.651-3.631-2.644-7.28-5.273-10.785-8.079-4.079-3.265-7.871-3.479-12.159-.164-7.238 5.596-14.717 10.881-22.107 16.28-1.296.948-2.651 1.816-5.109 3.49z"/><path fill="#181818" d="M248.61 374.627h38.334l-.002 1.198c-12.262 0-24.524.014-36.785-.043-.567-.003-1.131-.633-1.698-.972a6.36 6.36 0 0 1 .151-.183zm112.913 1.181H325.2l.001-.49h36.749l-.427.49z"/><path fill="#fefefe" d="M354.278 504.387c-.043.122-.083.346-.13.348-.139.005-.28-.079-.42-.129.043-.122.083-.347.13-.348.139-.004.28.08.42.129z"/><path fill="#fbfbfb" d="M279.802 506.795l-1.654.152-.211-2.971 1.879.215-.014 2.604z"/>
</symbol>
<symbol id="close" viewBox="0 0 512 512">
<path d="M443.6 387.1L312.4 255.4l131.5-130c5.4-5.4 5.4-14.2 0-19.6l-37.4-37.6c-2.6-2.6-6.1-4-9.8-4-3.7 0-7.2 1.5-9.8 4L256 197.8 124.9 68.3c-2.6-2.6-6.1-4-9.8-4-3.7 0-7.2 1.5-9.8 4L68 105.9c-5.4 5.4-5.4 14.2 0 19.6l131.5 130L68.4 387.1c-2.6 2.6-4.1 6.1-4.1 9.8 0 3.7 1.4 7.2 4.1 9.8l37.4 37.6c2.7 2.7 6.2 4.1 9.8 4.1 3.5 0 7.1-1.3 9.8-4.1L256 313.1l130.7 131.1c2.7 2.7 6.2 4.1 9.8 4.1 3.5 0 7.1-1.3 9.8-4.1l37.4-37.6c2.6-2.6 4.1-6.1 4.1-9.8-.1-3.6-1.6-7.1-4.2-9.7z"/>
</symbol>
<symbol id="menu" viewBox="0 0 612 792">
<path fill="#FFF" d="M110.3 347.1v-184h412v184h-412zm222.3-141.4c22.9 0 45.8.1 68.6 0 10.1 0 16-5.4 15.3-13.4-.6-6.5-6.6-10.6-15.9-10.6H272.5c-3.7 0-7.4-.2-11.1.1-7.3.7-12.6 5.8-12.5 11.9 0 6.4 5.6 11.5 13.1 12 1.7.1 3.5.1 5.2.1 21.9-.1 43.7-.1 65.4-.1zm0 123.2h68.6c9.6 0 15.2-4.3 15.4-11.5.1-7.5-5.4-12.3-15.2-12.3-45.7-.1-91.5-.1-137.2 0-9.6 0-15.5 5.1-15.2 12.5.2 6.9 6.3 11.3 15.7 11.4 22.6-.1 45.2-.1 67.9-.1zm-.4-81.2h67.3c11.2 0 17-4.1 17.1-11.8.1-7.9-5.6-12-16.8-12H263.2c-6.7 0-11.3 2.7-13.5 8.1-2 4.8-.7 9.6 3.8 12.4 3.3 2 8 3.1 12 3.2 22.2.3 44.5.1 66.7.1zm.5 16.4c-23.1 0-46.2-.1-69.3 0-8.7 0-14.5 5-14.4 11.9.1 6.9 5.7 11.8 14.5 11.8 46.4.1 92.8.1 139.2-.1 3.7 0 8-2 10.8-4.2 4-3.2 4.2-7.9 2.1-12.2-2.4-4.9-6.9-7.1-13-7.1-23.3-.1-46.6-.1-69.9-.1zM216 193.7c0 6.7 6 11.9 13.5 12 7.4 0 13.5-5.4 13.6-12.1 0-6.5-6.2-12-13.7-12-7.4.1-13.4 5.5-13.4 12.1zm0 42c0 6.9 5.7 12 13.5 12 7.6 0 13.6-5.4 13.5-12.1-.1-6.5-5.9-11.5-13.3-11.6-7.8-.2-13.6 4.8-13.7 11.7zm13.8 93.2c7.6-.1 13.6-5.5 13.3-12.2-.2-6.4-6.3-11.5-13.6-11.6-7.6 0-13.6 5.2-13.5 12 .1 6.9 5.9 11.9 13.8 11.8zm-.4-41.1c7.6.1 13.8-5.2 13.8-11.9 0-6.4-5.8-11.6-13.2-11.8-7.8-.2-13.8 4.8-13.9 11.6-.2 6.9 5.4 12 13.3 12.1z"/>
<path d="M332.6 205.7h-65.4c-1.7 0-3.5.1-5.2-.1-7.5-.5-13.1-5.6-13.1-12 0-6 5.3-11.2 12.5-11.9 3.7-.3 7.4-.1 11.1-.1h128.1c9.3 0 15.2 4.1 15.9 10.6.8 8-5.1 13.4-15.3 13.4-22.8.2-45.7.1-68.6.1zm0 123.2h-68c-9.4 0-15.4-4.5-15.7-11.4-.3-7.4 5.6-12.5 15.2-12.5 45.7-.1 91.5-.1 137.2 0 9.8 0 15.3 4.8 15.2 12.3-.1 7.2-5.8 11.5-15.4 11.5-22.8.2-45.6.1-68.5.1zm-.4-81.2c-22.2 0-44.4.2-66.7-.1-4.1-.1-8.8-1.2-12-3.2-4.5-2.8-5.8-7.6-3.8-12.4 2.3-5.5 6.9-8.1 13.5-8.1h136.6c11.2 0 16.8 4.1 16.8 12-.1 7.7-5.9 11.8-17.1 11.8-22.4.1-44.9 0-67.3 0zm.5 16.4h69.9c6.1 0 10.6 2.2 13 7.1 2.1 4.4 1.9 9.1-2.1 12.2-2.8 2.2-7.1 4.2-10.8 4.2-46.4.3-92.8.2-139.2.1-8.8 0-14.4-4.9-14.5-11.8-.1-6.8 5.8-11.8 14.4-11.9 23.1 0 46.2.1 69.3.1zM216 193.7c0-6.7 6-12 13.4-12.1 7.5 0 13.7 5.5 13.7 12 0 6.7-6.1 12.1-13.6 12.1s-13.4-5.3-13.5-12zm0 42c0-6.9 5.9-11.9 13.7-11.8 7.5.1 13.2 5.1 13.3 11.6.1 6.7-5.9 12.1-13.5 12.1-7.7 0-13.5-5.1-13.5-11.9zm13.8 93.2c-7.9.1-13.7-4.9-13.8-11.7-.1-6.8 5.9-12.1 13.5-12 7.3 0 13.3 5.2 13.6 11.6.3 6.6-5.7 12-13.3 12.1zm-.4-41.1c-7.8-.1-13.5-5.2-13.3-12.1.1-6.8 6.1-11.8 13.9-11.6 7.4.2 13.2 5.4 13.2 11.8-.1 6.7-6.2 12-13.8 11.9z"/>
</symbol>
</svg>